<svg width="32" height="32" viewBox="0 0 32 32" fill="none" xmlns="http://www.w3.org/2000/svg">
  <path d="M6.5 19.5c0 1.4-1.1 2.5-2.5 2.5s-2.5-1.1-2.5-2.5 1.1-2.5 2.5-2.5h2.5v2.5zM8.5 19.5c0-1.4 1.1-2.5 2.5-2.5s2.5 1.1 2.5 2.5v6.5c0 1.4-1.1 2.5-2.5 2.5s-2.5-1.1-2.5-2.5v-6.5zM8.5 12.5c0 1.4-1.1 2.5-2.5 2.5s-2.5-1.1-2.5-2.5 1.1-2.5 2.5-2.5h2.5v2.5zM8.5 12.5c0-1.4 1.1-2.5 2.5-2.5s2.5 1.1 2.5 2.5v6.5c0 1.4-1.1 2.5-2.5 2.5s-2.5-1.1-2.5-2.5v-6.5zM15.5 6.5c1.4 0 2.5-1.1 2.5-2.5s-1.1-2.5-2.5-2.5-2.5 1.1-2.5 2.5v2.5h2.5zM15.5 8.5c-1.4 0-2.5 1.1-2.5 2.5s1.1 2.5 2.5 2.5h6.5c1.4 0 2.5-1.1 2.5-2.5s-1.1-2.5-2.5-2.5h-6.5zM22.5 12.5c-1.4 0-2.5 1.1-2.5 2.5s1.1 2.5 2.5 2.5 2.5-1.1 2.5-2.5v-2.5h-2.5zM22.5 8.5c1.4 0 2.5-1.1 2.5-2.5s-1.1-2.5-2.5-2.5h-6.5c-1.4 0-2.5 1.1-2.5 2.5s1.1 2.5 2.5 2.5h6.5z" fill="#E01E5A"/>
</svg>
